<mxfile host="app.diagrams.net" modified="2022-12-27T15:13:47.215Z" agent="5.0 (Windows NT 10.0; Win64; x64) AppleWebKit/537.36 (KHTML, like Gecko) Chrome/107.0.0.0 Safari/537.36 OPR/93.0.0.0 (Edition Yx GX)" etag="mLmKIpeCy9uvp3vtaZ7b" version="20.7.4" type="github">
  <diagram id="YvuUdEbvJ-dO5YptzvHO" name="на листочке">
    <mxGraphModel dx="1434" dy="836" grid="1" gridSize="10" guides="1" tooltips="1" connect="1" arrows="1" fold="1" page="1" pageScale="1" pageWidth="827" pageHeight="1169" math="0" shadow="0">
      <root>
        <mxCell id="0" />
        <mxCell id="1" parent="0" />
        <mxCell id="AuAp7uYRXw-K7xaJeRJ6-1" value="" style="rounded=0;whiteSpace=wrap;html=1;" vertex="1" parent="1">
          <mxGeometry x="200" y="10" width="570" height="470" as="geometry" />
        </mxCell>
        <mxCell id="AuAp7uYRXw-K7xaJeRJ6-2" style="edgeStyle=orthogonalEdgeStyle;rounded=0;orthogonalLoop=1;jettySize=auto;html=1;" edge="1" parent="1" source="AuAp7uYRXw-K7xaJeRJ6-3">
          <mxGeometry relative="1" as="geometry">
            <mxPoint x="220" y="119.79999999999995" as="targetPoint" />
            <mxPoint x="140" y="119.8" as="sourcePoint" />
            <Array as="points" />
          </mxGeometry>
        </mxCell>
        <mxCell id="AuAp7uYRXw-K7xaJeRJ6-3" value="не авторизированный пользователь&amp;nbsp;" style="shape=umlActor;verticalLabelPosition=bottom;verticalAlign=top;html=1;outlineConnect=0;" vertex="1" parent="1">
          <mxGeometry x="90" y="90" width="30" height="60" as="geometry" />
        </mxCell>
        <mxCell id="AuAp7uYRXw-K7xaJeRJ6-4" value="авторизированный пользователь&amp;nbsp;" style="shape=umlActor;verticalLabelPosition=bottom;verticalAlign=top;html=1;outlineConnect=0;" vertex="1" parent="1">
          <mxGeometry x="90" y="240" width="30" height="60" as="geometry" />
        </mxCell>
        <mxCell id="AuAp7uYRXw-K7xaJeRJ6-5" style="edgeStyle=orthogonalEdgeStyle;rounded=0;orthogonalLoop=1;jettySize=auto;html=1;" edge="1" parent="1" source="AuAp7uYRXw-K7xaJeRJ6-6" target="AuAp7uYRXw-K7xaJeRJ6-12">
          <mxGeometry relative="1" as="geometry" />
        </mxCell>
        <mxCell id="AuAp7uYRXw-K7xaJeRJ6-6" value="вход" style="ellipse;whiteSpace=wrap;html=1;" vertex="1" parent="1">
          <mxGeometry x="230" y="240" width="80" height="60" as="geometry" />
        </mxCell>
        <mxCell id="AuAp7uYRXw-K7xaJeRJ6-7" value="" style="endArrow=classic;html=1;rounded=0;exitX=1;exitY=1;exitDx=0;exitDy=0;entryX=0.476;entryY=-0.016;entryDx=0;entryDy=0;entryPerimeter=0;" edge="1" parent="1" source="AuAp7uYRXw-K7xaJeRJ6-10" target="AuAp7uYRXw-K7xaJeRJ6-12">
          <mxGeometry width="50" height="50" relative="1" as="geometry">
            <mxPoint x="340" y="110" as="sourcePoint" />
            <mxPoint x="400" y="130" as="targetPoint" />
          </mxGeometry>
        </mxCell>
        <mxCell id="AuAp7uYRXw-K7xaJeRJ6-8" value="установка" style="ellipse;whiteSpace=wrap;html=1;" vertex="1" parent="1">
          <mxGeometry x="220" y="95" width="80" height="50" as="geometry" />
        </mxCell>
        <mxCell id="AuAp7uYRXw-K7xaJeRJ6-9" value="" style="endArrow=classic;html=1;rounded=0;exitX=0.99;exitY=0.292;exitDx=0;exitDy=0;exitPerimeter=0;entryX=0;entryY=1;entryDx=0;entryDy=0;" edge="1" parent="1" source="AuAp7uYRXw-K7xaJeRJ6-8" target="AuAp7uYRXw-K7xaJeRJ6-10">
          <mxGeometry width="50" height="50" relative="1" as="geometry">
            <mxPoint x="280" y="120" as="sourcePoint" />
            <mxPoint x="330" y="70" as="targetPoint" />
          </mxGeometry>
        </mxCell>
        <mxCell id="AuAp7uYRXw-K7xaJeRJ6-10" value="регистрация&amp;nbsp;" style="ellipse;whiteSpace=wrap;html=1;" vertex="1" parent="1">
          <mxGeometry x="350" y="20" width="90" height="50" as="geometry" />
        </mxCell>
        <mxCell id="AuAp7uYRXw-K7xaJeRJ6-11" value="" style="endArrow=classic;html=1;rounded=0;" edge="1" parent="1" target="AuAp7uYRXw-K7xaJeRJ6-6">
          <mxGeometry width="50" height="50" relative="1" as="geometry">
            <mxPoint x="120" y="269.79999999999995" as="sourcePoint" />
            <mxPoint x="190" y="200" as="targetPoint" />
          </mxGeometry>
        </mxCell>
        <mxCell id="AuAp7uYRXw-K7xaJeRJ6-12" value="работа" style="ellipse;whiteSpace=wrap;html=1;" vertex="1" parent="1">
          <mxGeometry x="380" y="130" width="90" height="50" as="geometry" />
        </mxCell>
        <mxCell id="AuAp7uYRXw-K7xaJeRJ6-13" value="ввод данных" style="ellipse;whiteSpace=wrap;html=1;" vertex="1" parent="1">
          <mxGeometry x="500" y="125" width="90" height="60" as="geometry" />
        </mxCell>
        <mxCell id="AuAp7uYRXw-K7xaJeRJ6-14" value="от лиц счета&amp;nbsp;" style="ellipse;whiteSpace=wrap;html=1;" vertex="1" parent="1">
          <mxGeometry x="510" y="20" width="70" height="50" as="geometry" />
        </mxCell>
        <mxCell id="AuAp7uYRXw-K7xaJeRJ6-15" value="оплата" style="ellipse;whiteSpace=wrap;html=1;" vertex="1" parent="1">
          <mxGeometry x="510" y="230" width="70" height="50" as="geometry" />
        </mxCell>
        <mxCell id="AuAp7uYRXw-K7xaJeRJ6-16" value="подтверждение&amp;nbsp;" style="ellipse;whiteSpace=wrap;html=1;" vertex="1" parent="1">
          <mxGeometry x="640" y="130" width="100" height="60" as="geometry" />
        </mxCell>
        <mxCell id="AuAp7uYRXw-K7xaJeRJ6-17" value="карта Банка" style="ellipse;whiteSpace=wrap;html=1;" vertex="1" parent="1">
          <mxGeometry x="640" y="20" width="100" height="50" as="geometry" />
        </mxCell>
        <mxCell id="AuAp7uYRXw-K7xaJeRJ6-18" value="ЧЕК&amp;nbsp; квинтанция&amp;nbsp;" style="ellipse;whiteSpace=wrap;html=1;" vertex="1" parent="1">
          <mxGeometry x="500" y="320" width="80" height="60" as="geometry" />
        </mxCell>
        <mxCell id="AuAp7uYRXw-K7xaJeRJ6-19" value="сказать квинтанцию&amp;nbsp;" style="ellipse;whiteSpace=wrap;html=1;" vertex="1" parent="1">
          <mxGeometry x="495" y="400" width="90" height="60" as="geometry" />
        </mxCell>
        <mxCell id="AuAp7uYRXw-K7xaJeRJ6-20" value="" style="endArrow=classic;html=1;rounded=0;entryX=0.5;entryY=0;entryDx=0;entryDy=0;dashed=1;" edge="1" parent="1" target="AuAp7uYRXw-K7xaJeRJ6-18">
          <mxGeometry width="50" height="50" relative="1" as="geometry">
            <mxPoint x="540" y="280" as="sourcePoint" />
            <mxPoint x="440" y="120" as="targetPoint" />
            <Array as="points">
              <mxPoint x="540" y="280" />
            </Array>
          </mxGeometry>
        </mxCell>
        <mxCell id="AuAp7uYRXw-K7xaJeRJ6-21" value="" style="endArrow=none;dashed=1;html=1;rounded=0;exitX=0.5;exitY=0;exitDx=0;exitDy=0;entryX=0.5;entryY=1;entryDx=0;entryDy=0;" edge="1" parent="1" source="AuAp7uYRXw-K7xaJeRJ6-13" target="AuAp7uYRXw-K7xaJeRJ6-14">
          <mxGeometry width="50" height="50" relative="1" as="geometry">
            <mxPoint x="510" y="140" as="sourcePoint" />
            <mxPoint x="560" y="90" as="targetPoint" />
          </mxGeometry>
        </mxCell>
        <mxCell id="AuAp7uYRXw-K7xaJeRJ6-22" value="" style="endArrow=none;dashed=1;html=1;rounded=0;entryX=0.5;entryY=1;entryDx=0;entryDy=0;exitX=0.5;exitY=0;exitDx=0;exitDy=0;" edge="1" parent="1" source="AuAp7uYRXw-K7xaJeRJ6-16" target="AuAp7uYRXw-K7xaJeRJ6-17">
          <mxGeometry width="50" height="50" relative="1" as="geometry">
            <mxPoint x="700" y="120" as="sourcePoint" />
            <mxPoint x="440" y="120" as="targetPoint" />
            <Array as="points" />
          </mxGeometry>
        </mxCell>
        <mxCell id="AuAp7uYRXw-K7xaJeRJ6-23" value="" style="endArrow=none;dashed=1;html=1;rounded=0;entryX=0;entryY=0.5;entryDx=0;entryDy=0;" edge="1" parent="1" target="AuAp7uYRXw-K7xaJeRJ6-16">
          <mxGeometry width="50" height="50" relative="1" as="geometry">
            <mxPoint x="590" y="160" as="sourcePoint" />
            <mxPoint x="640" y="110" as="targetPoint" />
          </mxGeometry>
        </mxCell>
        <mxCell id="AuAp7uYRXw-K7xaJeRJ6-24" value="" style="endArrow=none;dashed=1;html=1;rounded=0;entryX=-0.017;entryY=0.527;entryDx=0;entryDy=0;entryPerimeter=0;exitX=1.006;exitY=0.537;exitDx=0;exitDy=0;exitPerimeter=0;" edge="1" parent="1" source="AuAp7uYRXw-K7xaJeRJ6-12" target="AuAp7uYRXw-K7xaJeRJ6-13">
          <mxGeometry width="50" height="50" relative="1" as="geometry">
            <mxPoint x="470" y="160" as="sourcePoint" />
            <mxPoint x="520" y="110" as="targetPoint" />
          </mxGeometry>
        </mxCell>
        <mxCell id="AuAp7uYRXw-K7xaJeRJ6-25" value="" style="endArrow=none;html=1;rounded=0;entryX=0.5;entryY=1;entryDx=0;entryDy=0;exitX=0.5;exitY=0;exitDx=0;exitDy=0;" edge="1" parent="1" source="AuAp7uYRXw-K7xaJeRJ6-19" target="AuAp7uYRXw-K7xaJeRJ6-18">
          <mxGeometry width="50" height="50" relative="1" as="geometry">
            <mxPoint x="390" y="170" as="sourcePoint" />
            <mxPoint x="440" y="120" as="targetPoint" />
          </mxGeometry>
        </mxCell>
        <mxCell id="AuAp7uYRXw-K7xaJeRJ6-26" value="" style="endArrow=none;html=1;rounded=0;exitX=0.5;exitY=0;exitDx=0;exitDy=0;entryX=0.5;entryY=1;entryDx=0;entryDy=0;" edge="1" parent="1" source="AuAp7uYRXw-K7xaJeRJ6-15" target="AuAp7uYRXw-K7xaJeRJ6-13">
          <mxGeometry width="50" height="50" relative="1" as="geometry">
            <mxPoint x="390" y="170" as="sourcePoint" />
            <mxPoint x="440" y="120" as="targetPoint" />
            <Array as="points" />
          </mxGeometry>
        </mxCell>
        <mxCell id="AuAp7uYRXw-K7xaJeRJ6-27" value="" style="endArrow=none;html=1;rounded=0;entryX=0.29;entryY=1;entryDx=0;entryDy=0;entryPerimeter=0;" edge="1" parent="1" target="AuAp7uYRXw-K7xaJeRJ6-16">
          <mxGeometry width="50" height="50" relative="1" as="geometry">
            <mxPoint x="580" y="250" as="sourcePoint" />
            <mxPoint x="630" y="200" as="targetPoint" />
          </mxGeometry>
        </mxCell>
      </root>
    </mxGraphModel>
  </diagram>
</mxfile>
